@startuml
users<|--students
users<|--teacher
students"1"--"n"coursestu
coursestu"1"-"1"course
coursestu"1"--"n"test

teacher"1"--"n"courseteach
course"1"-"1"courseteach
courseteach"1"--"n"test
test"1"--"n"testscore
class students{
   user_id（用户ID）
 student_id（学号）
 result_sum（成绩汇总）
 grade（班级）
 web_sum（网站正确与否汇总）
}


class teacher{
user_id（用户ID）
teacher_id（工号）
department（老师所属部门）

}

class courseteach{

   teacher_id（工号）
   course_id（课程号）
}

class coursestu{
   student_id（学号）
  course_id（课程号）

}
class course{
  coursename（课程名）
   course_id（课程号）
     term_id（学期号）
}


class test{
   student_id（学号）
   teacher_id（工号）
   test_id（实验编号）
   course_id（课程号）
   testname（实验名称）
   sum（成绩）
    update_time（评改日期）
       memo（评价）

}
class testscore{
     test_id（实验编号）
     score_id（评分编号）
     score（评分）

}
class users{
user_id（用户ID）
name（用户真实姓名）
gitname（git账号）
update_date（github账号修改日期）
password（密码）
disable（用户是否禁用）
}
@enduml